<mxfile host="app.diagrams.net" modified="2022-11-27T05:34:12.016Z" agent="5.0 (Windows NT 10.0; Win64; x64) AppleWebKit/537.36 (KHTML, like Gecko) Chrome/107.0.0.0 Safari/537.36" etag="-LPrEmTlnhdkBFeExMss" version="20.6.0" type="github">
  <diagram id="pnbUqi_Hy17aBZIksYAF" name="Page-1">
    <mxGraphModel dx="1404" dy="398" grid="1" gridSize="10" guides="1" tooltips="1" connect="1" arrows="1" fold="1" page="1" pageScale="1" pageWidth="850" pageHeight="1100" math="0" shadow="0">
      <root>
        <mxCell id="0" />
        <mxCell id="1" parent="0" />
        <mxCell id="7pWeG--zb2RyeEYXEQvc-6" style="edgeStyle=orthogonalEdgeStyle;rounded=0;orthogonalLoop=1;jettySize=auto;html=1;exitX=1;exitY=0.5;exitDx=0;exitDy=0;entryX=0;entryY=0.5;entryDx=0;entryDy=0;" parent="1" source="7pWeG--zb2RyeEYXEQvc-1" target="7pWeG--zb2RyeEYXEQvc-4" edge="1">
          <mxGeometry relative="1" as="geometry" />
        </mxCell>
        <mxCell id="7pWeG--zb2RyeEYXEQvc-7" value="category" style="edgeLabel;html=1;align=center;verticalAlign=middle;resizable=0;points=[];" parent="7pWeG--zb2RyeEYXEQvc-6" vertex="1" connectable="0">
          <mxGeometry x="-0.7846" relative="1" as="geometry">
            <mxPoint x="19" as="offset" />
          </mxGeometry>
        </mxCell>
        <mxCell id="vBNNVnR6SF_IRT_-wsf5-3" value="type&lt;br&gt;of" style="edgeStyle=orthogonalEdgeStyle;rounded=0;orthogonalLoop=1;jettySize=auto;html=1;exitX=0;exitY=0.5;exitDx=0;exitDy=0;entryX=1;entryY=0.5;entryDx=0;entryDy=0;" parent="1" source="7pWeG--zb2RyeEYXEQvc-1" target="7pWeG--zb2RyeEYXEQvc-2" edge="1">
          <mxGeometry relative="1" as="geometry" />
        </mxCell>
        <mxCell id="7pWeG--zb2RyeEYXEQvc-1" value="Wetpaint" style="rounded=0;whiteSpace=wrap;html=1;" parent="1" vertex="1">
          <mxGeometry x="70" y="210" width="80" height="30" as="geometry" />
        </mxCell>
        <mxCell id="7pWeG--zb2RyeEYXEQvc-2" value="organization" style="text;html=1;strokeColor=none;fillColor=none;align=center;verticalAlign=middle;whiteSpace=wrap;rounded=0;" parent="1" vertex="1">
          <mxGeometry x="-52" y="220" width="64" height="10" as="geometry" />
        </mxCell>
        <mxCell id="7pWeG--zb2RyeEYXEQvc-4" value="Publishing" style="rounded=0;whiteSpace=wrap;html=1;" parent="1" vertex="1">
          <mxGeometry x="210" y="210" width="60" height="30" as="geometry" />
        </mxCell>
        <mxCell id="qMM9obfmLQl1hRhhVFrr-1" value="&lt;font face=&quot;Times New Roman&quot;&gt;&lt;span style=&quot;font-size: 12px;&quot;&gt;Text literals&lt;/span&gt;&lt;/font&gt;" style="text;html=1;strokeColor=none;fillColor=none;align=center;verticalAlign=middle;whiteSpace=wrap;rounded=0;fontFamily=Helvetica;fontSize=14;fontColor=#000000;" parent="1" vertex="1">
          <mxGeometry x="280" y="210" width="60" height="30" as="geometry" />
        </mxCell>
        <mxCell id="qMM9obfmLQl1hRhhVFrr-2" value="raised&lt;br&gt;amount" style="edgeStyle=orthogonalEdgeStyle;rounded=0;orthogonalLoop=1;jettySize=auto;html=1;exitX=1;exitY=0.5;exitDx=0;exitDy=0;entryX=0;entryY=0.5;entryDx=0;entryDy=0;" parent="1" edge="1">
          <mxGeometry relative="1" as="geometry">
            <mxPoint x="147" y="280" as="sourcePoint" />
            <mxPoint x="207" y="280" as="targetPoint" />
          </mxGeometry>
        </mxCell>
        <mxCell id="qMM9obfmLQl1hRhhVFrr-3" value="type&lt;br&gt;of" style="edgeStyle=orthogonalEdgeStyle;rounded=0;orthogonalLoop=1;jettySize=auto;html=1;exitX=0;exitY=0.5;exitDx=0;exitDy=0;entryX=1;entryY=0.5;entryDx=0;entryDy=0;" parent="1" source="qMM9obfmLQl1hRhhVFrr-4" target="qMM9obfmLQl1hRhhVFrr-6" edge="1">
          <mxGeometry relative="1" as="geometry" />
        </mxCell>
        <mxCell id="qMM9obfmLQl1hRhhVFrr-4" value="Angel Round Meta" style="rounded=0;whiteSpace=wrap;html=1;" parent="1" vertex="1">
          <mxGeometry x="70" y="260" width="80" height="40" as="geometry" />
        </mxCell>
        <mxCell id="qMM9obfmLQl1hRhhVFrr-5" value="500000" style="rounded=0;whiteSpace=wrap;html=1;" parent="1" vertex="1">
          <mxGeometry x="210" y="260" width="60" height="40" as="geometry" />
        </mxCell>
        <mxCell id="qMM9obfmLQl1hRhhVFrr-6" value="funding round" style="text;html=1;strokeColor=none;fillColor=none;align=center;verticalAlign=middle;whiteSpace=wrap;rounded=0;" parent="1" vertex="1">
          <mxGeometry x="-66" y="272.5" width="78" height="15" as="geometry" />
        </mxCell>
        <mxCell id="qMM9obfmLQl1hRhhVFrr-7" value="&lt;font face=&quot;Times New Roman&quot;&gt;&lt;span style=&quot;font-size: 12px;&quot;&gt;Numeric literals&lt;/span&gt;&lt;/font&gt;" style="text;html=1;strokeColor=none;fillColor=none;align=center;verticalAlign=middle;whiteSpace=wrap;rounded=0;fontFamily=Helvetica;fontSize=14;fontColor=#000000;" parent="1" vertex="1">
          <mxGeometry x="280" y="265" width="80" height="30" as="geometry" />
        </mxCell>
        <mxCell id="qMM9obfmLQl1hRhhVFrr-8" value="type&lt;br&gt;of" style="edgeStyle=orthogonalEdgeStyle;rounded=0;orthogonalLoop=1;jettySize=auto;html=1;exitX=0;exitY=0.5;exitDx=0;exitDy=0;" parent="1" source="qMM9obfmLQl1hRhhVFrr-10" target="qMM9obfmLQl1hRhhVFrr-11" edge="1">
          <mxGeometry relative="1" as="geometry" />
        </mxCell>
        <mxCell id="qMM9obfmLQl1hRhhVFrr-9" value="started&lt;br&gt;on" style="edgeStyle=orthogonalEdgeStyle;rounded=0;orthogonalLoop=1;jettySize=auto;html=1;exitX=1;exitY=0.5;exitDx=0;exitDy=0;entryX=0;entryY=0.5;entryDx=0;entryDy=0;" parent="1" source="qMM9obfmLQl1hRhhVFrr-10" target="qMM9obfmLQl1hRhhVFrr-12" edge="1">
          <mxGeometry relative="1" as="geometry" />
        </mxCell>
        <mxCell id="qMM9obfmLQl1hRhhVFrr-10" value="SF Music Tech Summit" style="rounded=0;whiteSpace=wrap;html=1;" parent="1" vertex="1">
          <mxGeometry x="70" y="320" width="80" height="40" as="geometry" />
        </mxCell>
        <mxCell id="qMM9obfmLQl1hRhhVFrr-11" value="event" style="text;html=1;strokeColor=none;fillColor=none;align=center;verticalAlign=middle;whiteSpace=wrap;rounded=0;" parent="1" vertex="1">
          <mxGeometry x="-18" y="325" width="30" height="30" as="geometry" />
        </mxCell>
        <mxCell id="qMM9obfmLQl1hRhhVFrr-12" value="11/2014" style="rounded=0;whiteSpace=wrap;html=1;" parent="1" vertex="1">
          <mxGeometry x="212" y="320" width="58" height="40" as="geometry" />
        </mxCell>
        <mxCell id="qMM9obfmLQl1hRhhVFrr-14" value="&lt;font face=&quot;Times New Roman&quot;&gt;&lt;span style=&quot;font-size: 12px;&quot;&gt;Date&lt;/span&gt;&lt;/font&gt;" style="text;html=1;strokeColor=none;fillColor=none;align=center;verticalAlign=middle;whiteSpace=wrap;rounded=0;fontFamily=Helvetica;fontSize=14;fontColor=#000000;" parent="1" vertex="1">
          <mxGeometry x="280" y="325" width="30" height="30" as="geometry" />
        </mxCell>
      </root>
    </mxGraphModel>
  </diagram>
</mxfile>
